# xmcd
#
# Track frame offsets: 
#        150
#        6884
#        16878
#        35790
#        55485
#        67633
#        81774
#        93301
#        106043
#        118119
#        131073
#        144593
#        154152
#        168272
#        182048
#        194405
#        206007
#
# Disc length: 2864 seconds
#
# Revision: 0
# Processed by: cddbd v1.4PL0 Copyright (c) Steve Scherf et al.
# Submitted via: ExactAudioCopy v0.90b4
#
DISCID=e40b2e11
DTITLE=Bill Monroe and The Bluegrass Boys - Bill Monroe 2-13-67 D1
DYEAR=1967
DGENRE=Bluegrass
TTITLE0=Bill Monroe - Watermelon Hanging On The Vine
TTITLE1=Bill Monroe - Panhandle Country
TTITLE2=Bill Monroe - The Walls Of Time
TTITLE3=Bill Monroe - Blue Grass Breakdown
TTITLE4=Bill Monroe - Prisoner's Song
TTITLE5=Bill Monroe - Live and Let Live
TTITLE6=Bill Monroe - Roanoke
TTITLE7=Bill Monroe - Muleskinner
TTITLE8=Bill Monroe - Highway Of Sorrow
TTITLE9=Bill Monroe - I Saw The Light
TTITLE10=Bill Monroe - Dark Hollow
TTITLE11=Bill Monroe - Molly and The Tenbrooks
TTITLE12=Bill Monroe - Rawhide
TTITLE13=Bill Monroe - Footprints In The Snow
TTITLE14=Bill Monroe - True Life Blues
TTITLE15=Bill Monroe - Uncle Pen
TTITLE16=Bill Monroe - Stage Banter
EXTD=
EXTT0=
EXTT1=
EXTT2=
EXTT3=
EXTT4=
EXTT5=
EXTT6=
EXTT7=
EXTT8=
EXTT9=
EXTT10=
EXTT11=
EXTT12=
EXTT13=
EXTT14=
EXTT15=
EXTT16=
PLAYORDER=
